<mxfile host="app.diagrams.net" modified="2023-06-22T10:48:00.495Z" agent="Mozilla/5.0 (Windows NT 10.0; Win64; x64) AppleWebKit/537.36 (KHTML, like Gecko) Chrome/114.0.0.0 Safari/537.36" etag="RyWcW9jPOFNr6uGI0vEI" version="21.5.0" type="device">
  <diagram name="Page-1" id="GciD0ksuuQ6Q6rUz4apv">
    <mxGraphModel dx="1050" dy="573" grid="1" gridSize="10" guides="1" tooltips="1" connect="1" arrows="1" fold="1" page="1" pageScale="1" pageWidth="850" pageHeight="1100" math="0" shadow="0">
      <root>
        <mxCell id="0" />
        <mxCell id="1" parent="0" />
        <mxCell id="u_ePfAm3T4Gj3d58loTb-63" value="" style="ellipse;whiteSpace=wrap;html=1;" vertex="1" parent="1">
          <mxGeometry x="185" y="236" width="90.06" height="58" as="geometry" />
        </mxCell>
        <mxCell id="u_ePfAm3T4Gj3d58loTb-3" value="Reality Show" style="rounded=0;whiteSpace=wrap;html=1;" vertex="1" parent="1">
          <mxGeometry x="50" y="170" width="120" height="60" as="geometry" />
        </mxCell>
        <mxCell id="u_ePfAm3T4Gj3d58loTb-4" value="participant&#39;s name" style="ellipse;whiteSpace=wrap;html=1;" vertex="1" parent="1">
          <mxGeometry x="190.06" y="240" width="80" height="50" as="geometry" />
        </mxCell>
        <mxCell id="u_ePfAm3T4Gj3d58loTb-6" value="Name" style="ellipse;whiteSpace=wrap;html=1;" vertex="1" parent="1">
          <mxGeometry y="100" width="80" height="40" as="geometry" />
        </mxCell>
        <mxCell id="u_ePfAm3T4Gj3d58loTb-7" value="Basic Information" style="ellipse;whiteSpace=wrap;html=1;" vertex="1" parent="1">
          <mxGeometry x="170" y="110" width="90" height="40" as="geometry" />
        </mxCell>
        <mxCell id="u_ePfAm3T4Gj3d58loTb-12" value="" style="endArrow=none;html=1;rounded=0;exitX=0.167;exitY=0.023;exitDx=0;exitDy=0;exitPerimeter=0;" edge="1" parent="1" source="u_ePfAm3T4Gj3d58loTb-3">
          <mxGeometry width="50" height="50" relative="1" as="geometry">
            <mxPoint x="50" y="190" as="sourcePoint" />
            <mxPoint x="50" y="140" as="targetPoint" />
          </mxGeometry>
        </mxCell>
        <mxCell id="u_ePfAm3T4Gj3d58loTb-13" value="" style="endArrow=none;html=1;rounded=0;" edge="1" parent="1">
          <mxGeometry width="50" height="50" relative="1" as="geometry">
            <mxPoint x="150" y="230" as="sourcePoint" />
            <mxPoint x="190" y="260" as="targetPoint" />
          </mxGeometry>
        </mxCell>
        <mxCell id="u_ePfAm3T4Gj3d58loTb-14" value="Producer" style="rounded=0;whiteSpace=wrap;html=1;" vertex="1" parent="1">
          <mxGeometry x="590" y="140" width="120" height="60" as="geometry" />
        </mxCell>
        <mxCell id="u_ePfAm3T4Gj3d58loTb-15" value="Company Name" style="ellipse;whiteSpace=wrap;html=1;" vertex="1" parent="1">
          <mxGeometry x="710" y="220" width="100" height="50" as="geometry" />
        </mxCell>
        <mxCell id="u_ePfAm3T4Gj3d58loTb-16" value="Country" style="ellipse;whiteSpace=wrap;html=1;" vertex="1" parent="1">
          <mxGeometry x="650" y="280" width="80" height="50" as="geometry" />
        </mxCell>
        <mxCell id="u_ePfAm3T4Gj3d58loTb-17" value="Producer ID" style="ellipse;whiteSpace=wrap;html=1;" vertex="1" parent="1">
          <mxGeometry x="560" y="250" width="70" height="40" as="geometry" />
        </mxCell>
        <mxCell id="u_ePfAm3T4Gj3d58loTb-19" value="" style="endArrow=none;html=1;rounded=0;entryX=0.56;entryY=1.083;entryDx=0;entryDy=0;entryPerimeter=0;exitX=0.38;exitY=0.02;exitDx=0;exitDy=0;exitPerimeter=0;" edge="1" parent="1" source="u_ePfAm3T4Gj3d58loTb-16" target="u_ePfAm3T4Gj3d58loTb-14">
          <mxGeometry width="50" height="50" relative="1" as="geometry">
            <mxPoint x="665" y="295" as="sourcePoint" />
            <mxPoint x="715" y="245" as="targetPoint" />
          </mxGeometry>
        </mxCell>
        <mxCell id="u_ePfAm3T4Gj3d58loTb-20" value="" style="endArrow=none;html=1;rounded=0;exitX=0.5;exitY=0;exitDx=0;exitDy=0;entryX=0.25;entryY=1;entryDx=0;entryDy=0;entryPerimeter=0;" edge="1" parent="1" source="u_ePfAm3T4Gj3d58loTb-17" target="u_ePfAm3T4Gj3d58loTb-14">
          <mxGeometry width="50" height="50" relative="1" as="geometry">
            <mxPoint x="570" y="250" as="sourcePoint" />
            <mxPoint x="620" y="210" as="targetPoint" />
          </mxGeometry>
        </mxCell>
        <mxCell id="u_ePfAm3T4Gj3d58loTb-21" value="" style="endArrow=none;html=1;rounded=0;" edge="1" parent="1">
          <mxGeometry width="50" height="50" relative="1" as="geometry">
            <mxPoint x="690" y="200" as="sourcePoint" />
            <mxPoint x="740" y="220" as="targetPoint" />
          </mxGeometry>
        </mxCell>
        <mxCell id="u_ePfAm3T4Gj3d58loTb-31" value="Produce" style="rhombus;whiteSpace=wrap;html=1;" vertex="1" parent="1">
          <mxGeometry x="381" y="159" width="75" height="50" as="geometry" />
        </mxCell>
        <mxCell id="u_ePfAm3T4Gj3d58loTb-32" value="" style="endArrow=none;html=1;rounded=0;entryX=0;entryY=0.25;entryDx=0;entryDy=0;exitX=0.92;exitY=0.5;exitDx=0;exitDy=0;exitPerimeter=0;" edge="1" parent="1" source="u_ePfAm3T4Gj3d58loTb-31">
          <mxGeometry width="50" height="50" relative="1" as="geometry">
            <mxPoint x="460" y="183.5" as="sourcePoint" />
            <mxPoint x="590" y="184" as="targetPoint" />
          </mxGeometry>
        </mxCell>
        <mxCell id="u_ePfAm3T4Gj3d58loTb-33" value="" style="endArrow=none;html=1;rounded=0;" edge="1" parent="1">
          <mxGeometry width="50" height="50" relative="1" as="geometry">
            <mxPoint x="150" y="170" as="sourcePoint" />
            <mxPoint x="180" y="140" as="targetPoint" />
          </mxGeometry>
        </mxCell>
        <mxCell id="u_ePfAm3T4Gj3d58loTb-34" value="" style="endArrow=none;html=1;rounded=0;exitX=1;exitY=0.25;exitDx=0;exitDy=0;" edge="1" parent="1" source="u_ePfAm3T4Gj3d58loTb-3">
          <mxGeometry width="50" height="50" relative="1" as="geometry">
            <mxPoint x="230" y="177.5" as="sourcePoint" />
            <mxPoint x="380" y="185" as="targetPoint" />
          </mxGeometry>
        </mxCell>
        <mxCell id="u_ePfAm3T4Gj3d58loTb-40" value="User" style="rounded=0;whiteSpace=wrap;html=1;" vertex="1" parent="1">
          <mxGeometry x="570" y="435" width="120" height="60" as="geometry" />
        </mxCell>
        <mxCell id="u_ePfAm3T4Gj3d58loTb-41" value="Age" style="ellipse;whiteSpace=wrap;html=1;" vertex="1" parent="1">
          <mxGeometry x="730" y="400" width="90" height="40" as="geometry" />
        </mxCell>
        <mxCell id="u_ePfAm3T4Gj3d58loTb-42" value="Username" style="ellipse;whiteSpace=wrap;html=1;" vertex="1" parent="1">
          <mxGeometry x="700" y="560" width="110" height="50" as="geometry" />
        </mxCell>
        <mxCell id="u_ePfAm3T4Gj3d58loTb-43" value="Password" style="ellipse;whiteSpace=wrap;html=1;" vertex="1" parent="1">
          <mxGeometry x="740" y="480" width="90" height="50" as="geometry" />
        </mxCell>
        <mxCell id="u_ePfAm3T4Gj3d58loTb-44" value="User ID" style="ellipse;whiteSpace=wrap;html=1;" vertex="1" parent="1">
          <mxGeometry x="610" y="620" width="100" height="40" as="geometry" />
        </mxCell>
        <mxCell id="u_ePfAm3T4Gj3d58loTb-35" value="Briadcast" style="rhombus;whiteSpace=wrap;html=1;" vertex="1" parent="1">
          <mxGeometry x="80" y="500" width="88.18" height="62.29" as="geometry" />
        </mxCell>
        <mxCell id="u_ePfAm3T4Gj3d58loTb-36" value="" style="endArrow=none;html=1;rounded=0;entryX=0;entryY=0.25;entryDx=0;entryDy=0;exitX=1;exitY=0.5;exitDx=0;exitDy=0;" edge="1" parent="1" source="u_ePfAm3T4Gj3d58loTb-35" target="u_ePfAm3T4Gj3d58loTb-22">
          <mxGeometry width="50" height="50" relative="1" as="geometry">
            <mxPoint x="177.95454545454544" y="485.4957446808511" as="sourcePoint" />
            <mxPoint x="295.22727272727275" y="485.4957446808511" as="targetPoint" />
          </mxGeometry>
        </mxCell>
        <mxCell id="u_ePfAm3T4Gj3d58loTb-37" value="" style="endArrow=none;html=1;rounded=0;exitX=0.5;exitY=0;exitDx=0;exitDy=0;" edge="1" parent="1" source="u_ePfAm3T4Gj3d58loTb-35">
          <mxGeometry width="50" height="50" relative="1" as="geometry">
            <mxPoint x="115.08999999999992" y="500" as="sourcePoint" />
            <mxPoint x="124.48863636363637" y="230" as="targetPoint" />
          </mxGeometry>
        </mxCell>
        <mxCell id="u_ePfAm3T4Gj3d58loTb-5" value="ID" style="ellipse;whiteSpace=wrap;html=1;" vertex="1" parent="1">
          <mxGeometry x="11.820909090909083" y="309.9972340425532" width="78.18181818181819" height="38.638297872340424" as="geometry" />
        </mxCell>
        <mxCell id="u_ePfAm3T4Gj3d58loTb-46" value="" style="endArrow=none;html=1;rounded=0;" edge="1" parent="1">
          <mxGeometry width="50" height="50" relative="1" as="geometry">
            <mxPoint x="40" y="310" as="sourcePoint" />
            <mxPoint x="100" y="230" as="targetPoint" />
          </mxGeometry>
        </mxCell>
        <mxCell id="u_ePfAm3T4Gj3d58loTb-47" value="" style="endArrow=none;html=1;rounded=0;entryX=0.5;entryY=1;entryDx=0;entryDy=0;exitX=0.256;exitY=-0.055;exitDx=0;exitDy=0;exitPerimeter=0;" edge="1" parent="1" source="u_ePfAm3T4Gj3d58loTb-44" target="u_ePfAm3T4Gj3d58loTb-40">
          <mxGeometry width="50" height="50" relative="1" as="geometry">
            <mxPoint x="610" y="600" as="sourcePoint" />
            <mxPoint x="660" y="550" as="targetPoint" />
          </mxGeometry>
        </mxCell>
        <mxCell id="u_ePfAm3T4Gj3d58loTb-48" value="" style="endArrow=none;html=1;rounded=0;exitX=1;exitY=0.25;exitDx=0;exitDy=0;entryX=0;entryY=0.5;entryDx=0;entryDy=0;" edge="1" parent="1" source="u_ePfAm3T4Gj3d58loTb-40" target="u_ePfAm3T4Gj3d58loTb-41">
          <mxGeometry width="50" height="50" relative="1" as="geometry">
            <mxPoint x="660" y="450" as="sourcePoint" />
            <mxPoint x="760" y="440" as="targetPoint" />
          </mxGeometry>
        </mxCell>
        <mxCell id="u_ePfAm3T4Gj3d58loTb-49" value="" style="endArrow=none;html=1;rounded=0;entryX=-0.04;entryY=0.34;entryDx=0;entryDy=0;entryPerimeter=0;" edge="1" parent="1" target="u_ePfAm3T4Gj3d58loTb-43">
          <mxGeometry width="50" height="50" relative="1" as="geometry">
            <mxPoint x="690" y="475" as="sourcePoint" />
            <mxPoint x="750" y="495" as="targetPoint" />
          </mxGeometry>
        </mxCell>
        <mxCell id="u_ePfAm3T4Gj3d58loTb-50" value="" style="endArrow=none;html=1;rounded=0;entryX=0.182;entryY=0;entryDx=0;entryDy=0;entryPerimeter=0;" edge="1" parent="1" target="u_ePfAm3T4Gj3d58loTb-42">
          <mxGeometry width="50" height="50" relative="1" as="geometry">
            <mxPoint x="650" y="495" as="sourcePoint" />
            <mxPoint x="700" y="535" as="targetPoint" />
          </mxGeometry>
        </mxCell>
        <mxCell id="u_ePfAm3T4Gj3d58loTb-51" value="Rate" style="rhombus;whiteSpace=wrap;html=1;" vertex="1" parent="1">
          <mxGeometry x="381" y="420" width="80" height="60" as="geometry" />
        </mxCell>
        <mxCell id="u_ePfAm3T4Gj3d58loTb-22" value="TV Channel" style="rounded=0;whiteSpace=wrap;html=1;" vertex="1" parent="1">
          <mxGeometry x="270.06" y="520" width="96.75" height="60.96" as="geometry" />
        </mxCell>
        <mxCell id="u_ePfAm3T4Gj3d58loTb-23" value="Head Office" style="ellipse;whiteSpace=wrap;html=1;" vertex="1" parent="1">
          <mxGeometry x="197.5" y="623.8959810874703" width="72.5625" height="42.93144208037825" as="geometry" />
        </mxCell>
        <mxCell id="u_ePfAm3T4Gj3d58loTb-24" value="Start Year" style="ellipse;whiteSpace=wrap;html=1;" vertex="1" parent="1">
          <mxGeometry x="294.25" y="641.0685579196216" width="72.5625" height="42.93144208037825" as="geometry" />
        </mxCell>
        <mxCell id="u_ePfAm3T4Gj3d58loTb-25" value="Name" style="ellipse;whiteSpace=wrap;html=1;" vertex="1" parent="1">
          <mxGeometry x="391" y="598.1371158392434" width="80.625" height="51.51773049645389" as="geometry" />
        </mxCell>
        <mxCell id="u_ePfAm3T4Gj3d58loTb-26" value="Unique ID" style="ellipse;whiteSpace=wrap;html=1;" vertex="1" parent="1">
          <mxGeometry x="439.375" y="529.4468085106382" width="80.625" height="51.51773049645389" as="geometry" />
        </mxCell>
        <mxCell id="u_ePfAm3T4Gj3d58loTb-27" value="" style="endArrow=none;html=1;rounded=0;" edge="1" parent="1">
          <mxGeometry width="50" height="50" relative="1" as="geometry">
            <mxPoint x="366.8125" y="554.7763593380614" as="sourcePoint" />
            <mxPoint x="439.375" y="554.7763593380614" as="targetPoint" />
          </mxGeometry>
        </mxCell>
        <mxCell id="u_ePfAm3T4Gj3d58loTb-28" value="" style="endArrow=none;html=1;rounded=0;" edge="1" parent="1">
          <mxGeometry width="50" height="50" relative="1" as="geometry">
            <mxPoint x="229.75" y="623.8959810874703" as="sourcePoint" />
            <mxPoint x="270.0625" y="580.9645390070921" as="targetPoint" />
          </mxGeometry>
        </mxCell>
        <mxCell id="u_ePfAm3T4Gj3d58loTb-29" value="" style="endArrow=none;html=1;rounded=0;" edge="1" parent="1">
          <mxGeometry width="50" height="50" relative="1" as="geometry">
            <mxPoint x="318.034375" y="641.0685579196216" as="sourcePoint" />
            <mxPoint x="318.034375" y="580.9645390070921" as="targetPoint" />
          </mxGeometry>
        </mxCell>
        <mxCell id="u_ePfAm3T4Gj3d58loTb-30" value="" style="endArrow=none;html=1;rounded=0;exitX=1;exitY=1;exitDx=0;exitDy=0;entryX=0.2;entryY=0.167;entryDx=0;entryDy=0;entryPerimeter=0;" edge="1" parent="1" source="u_ePfAm3T4Gj3d58loTb-22" target="u_ePfAm3T4Gj3d58loTb-25">
          <mxGeometry width="50" height="50" relative="1" as="geometry">
            <mxPoint x="366.8125" y="589.5508274231678" as="sourcePoint" />
            <mxPoint x="407.125" y="606.7234042553191" as="targetPoint" />
          </mxGeometry>
        </mxCell>
        <mxCell id="u_ePfAm3T4Gj3d58loTb-52" value="" style="endArrow=none;html=1;rounded=0;entryX=0;entryY=0.25;entryDx=0;entryDy=0;" edge="1" parent="1" target="u_ePfAm3T4Gj3d58loTb-40">
          <mxGeometry width="50" height="50" relative="1" as="geometry">
            <mxPoint x="461" y="449.5" as="sourcePoint" />
            <mxPoint x="551" y="449.5" as="targetPoint" />
          </mxGeometry>
        </mxCell>
        <mxCell id="u_ePfAm3T4Gj3d58loTb-53" value="" style="endArrow=none;html=1;rounded=0;" edge="1" parent="1">
          <mxGeometry width="50" height="50" relative="1" as="geometry">
            <mxPoint x="140" y="450" as="sourcePoint" />
            <mxPoint x="380" y="450" as="targetPoint" />
          </mxGeometry>
        </mxCell>
        <mxCell id="u_ePfAm3T4Gj3d58loTb-54" value="" style="endArrow=none;html=1;rounded=0;entryX=0.75;entryY=1;entryDx=0;entryDy=0;" edge="1" parent="1" target="u_ePfAm3T4Gj3d58loTb-3">
          <mxGeometry width="50" height="50" relative="1" as="geometry">
            <mxPoint x="140" y="450" as="sourcePoint" />
            <mxPoint x="197.5" y="400" as="targetPoint" />
          </mxGeometry>
        </mxCell>
        <mxCell id="u_ePfAm3T4Gj3d58loTb-55" value="M" style="text;html=1;align=center;verticalAlign=middle;resizable=0;points=[];autosize=1;strokeColor=none;fillColor=none;" vertex="1" parent="1">
          <mxGeometry x="165" y="158" width="30" height="30" as="geometry" />
        </mxCell>
        <mxCell id="u_ePfAm3T4Gj3d58loTb-56" value="1" style="text;html=1;align=center;verticalAlign=middle;resizable=0;points=[];autosize=1;strokeColor=none;fillColor=none;" vertex="1" parent="1">
          <mxGeometry x="565" y="158" width="30" height="30" as="geometry" />
        </mxCell>
        <mxCell id="u_ePfAm3T4Gj3d58loTb-59" value="M" style="text;html=1;align=center;verticalAlign=middle;resizable=0;points=[];autosize=1;strokeColor=none;fillColor=none;" vertex="1" parent="1">
          <mxGeometry x="545" y="428" width="30" height="30" as="geometry" />
        </mxCell>
        <mxCell id="u_ePfAm3T4Gj3d58loTb-60" value="1" style="text;html=1;align=center;verticalAlign=middle;resizable=0;points=[];autosize=1;strokeColor=none;fillColor=none;" vertex="1" parent="1">
          <mxGeometry x="135" y="228" width="30" height="30" as="geometry" />
        </mxCell>
        <mxCell id="u_ePfAm3T4Gj3d58loTb-61" value="M" style="text;html=1;align=center;verticalAlign=middle;resizable=0;points=[];autosize=1;strokeColor=none;fillColor=none;" vertex="1" parent="1">
          <mxGeometry x="95" y="228" width="30" height="30" as="geometry" />
        </mxCell>
        <mxCell id="u_ePfAm3T4Gj3d58loTb-62" value="1" style="text;html=1;align=center;verticalAlign=middle;resizable=0;points=[];autosize=1;strokeColor=none;fillColor=none;" vertex="1" parent="1">
          <mxGeometry x="245" y="508" width="30" height="30" as="geometry" />
        </mxCell>
      </root>
    </mxGraphModel>
  </diagram>
</mxfile>
